<svg width="58" height="45" viewBox="0 0 58 45" fill="none" xmlns="http://www.w3.org/2000/svg">
<path d="M22.0352 9.11914L11.9658 36.7003C15.3039 29.9428 18.642 23.1854 21.9804 16.4284C23.8169 20.1459 25.653 23.8635 27.4902 27.5814H18.3105L35.0962 33.6963L22.0353 9.11914H22.0352Z" fill="white"/>
<path fill-rule="evenodd" clip-rule="evenodd" d="M22.0352 9.11912L35.0961 33.6963L18.3105 27.5814C17.1706 29.9273 16.0303 32.2729 14.8904 34.6181C23.7893 36.0645 32.6886 37.5105 41.5875 38.9562C35.0519 26.2714 28.516 13.5861 21.9804 0.900879L3.77783 39.4543L57.7627 44.3016C42.4968 41.7682 27.2317 39.2336 11.9658 36.7002L22.0352 9.11909L22.0352 9.11912Z" fill="#809E26"/>
<path d="M21.9803 0.900879C14.8642 14.7192 7.74854 28.5375 0.632812 42.3559C19.676 43.0044 38.7187 43.6534 57.7626 44.3016L3.77776 39.4544L21.9803 0.900917V0.900879Z" fill="white"/>
</svg>
