<svg width="21" height="16" viewBox="0 0 21 16" fill="none" xmlns="http://www.w3.org/2000/svg">
<path d="M1.36467 2.16362C0.777327 2.16362 0.301514 1.68773 0.301514 1.10076C0.301514 0.514167 0.777327 0.0375977 1.36467 0.0375977H8.53934C9.12593 0.0375977 9.60258 0.514167 9.60258 1.10076C9.60258 1.68773 9.12593 2.16362 8.53934 2.16362H1.36467ZM1.36467 15.8492C0.777327 15.8492 0.301514 15.3733 0.301514 14.7863C0.301514 14.199 0.777327 13.7232 1.36467 13.7232H12.459C13.046 13.7232 13.5223 14.199 13.5223 14.7863C13.5223 15.3733 13.046 15.8492 12.459 15.8492H1.36467ZM1.36467 8.87378C0.777327 8.87378 0.301514 8.39796 0.301514 7.81062C0.301514 7.22327 0.777327 6.74746 1.36467 6.74746H19.8337C20.4203 6.74746 20.8969 7.22327 20.8969 7.81062C20.8969 8.39796 20.4203 8.87378 19.8337 8.87378H1.36467Z" fill="#809E26"/>
</svg>
