<svg width="205" height="193" viewBox="0 0 205 193" fill="none" xmlns="http://www.w3.org/2000/svg">
<path d="M160.266 135.037H160.585H166.086H166.404L166.52 135.327L174.567 154.866L174.799 155.445H174.162H169.182H168.865L168.749 155.155L163.335 141.724L157.923 155.155L157.807 155.445H157.488H152.509H151.872L152.104 154.866L160.152 135.327L160.266 135.037Z" fill="#FEFEFE"/>
<path d="M187.7 139.871H185.732V143.634H187.7C189.244 143.634 190.335 143.494 190.972 143.215C191.609 142.935 191.928 142.448 191.928 141.753C191.928 141.058 191.609 140.57 190.972 140.291C190.335 140.011 189.244 139.871 187.7 139.871ZM180.204 135.037H180.638H185.241H187.702C190.847 135.037 193.192 135.64 194.736 136.847C196.28 138.053 197.052 139.66 197.052 141.667C197.052 144.252 195.932 146.106 193.695 147.225L197.776 154.838L198.095 155.446H197.4H192.652H192.333L192.218 155.186L188.657 148.47H187.702H185.733V155.012V155.446H185.241H180.638H180.204V155.012V135.473V135.038V135.037Z" fill="#FEFEFE"/>
<path d="M131.165 135.037H131.6H148.447H148.881V135.471V139.437V139.871H148.447H142.918V155.011V155.445H142.455H137.562H137.099V155.011V139.871H131.6H131.165V139.437V135.471V135.037Z" fill="#FEFEFE"/>
<path d="M113.88 141.318C113.88 141.608 114.291 141.869 115.11 142.1C115.93 142.332 116.925 142.588 118.092 142.867C119.26 143.147 120.427 143.51 121.595 143.953C122.762 144.397 123.755 145.077 124.577 145.994C125.396 146.911 125.807 148.015 125.807 149.309C125.807 151.47 125.001 153.095 123.39 154.186C121.778 155.277 119.536 155.822 116.661 155.822C113.167 155.822 110.205 155.011 107.774 153.39L107.484 153.158L107.687 152.811L109.858 149.249L110.089 148.873L110.466 149.105C110.717 149.258 111.05 149.442 111.465 149.655C111.88 149.868 112.666 150.152 113.825 150.509C114.982 150.866 116.054 151.044 117.037 151.044C117.712 151.044 118.278 150.981 118.731 150.856C119.184 150.731 119.503 150.563 119.685 150.35C119.869 150.137 119.989 149.94 120.048 149.757C120.106 149.573 120.135 149.367 120.135 149.135C120.135 148.769 119.913 148.445 119.469 148.165C119.024 147.886 118.45 147.649 117.746 147.456C117.042 147.264 116.265 147.071 115.416 146.877C114.568 146.684 113.719 146.437 112.869 146.139C112.02 145.841 111.243 145.492 110.538 145.098C109.834 144.702 109.26 144.166 108.815 143.491C108.372 142.816 108.149 142.034 108.149 141.146C108.149 139.062 108.998 137.46 110.696 136.34C112.394 135.221 114.45 134.662 116.862 134.662C118.058 134.662 119.192 134.788 120.263 135.038C121.335 135.289 122.227 135.607 122.941 135.994C123.655 136.379 124.176 136.679 124.503 136.892C124.832 137.105 125.112 137.308 125.343 137.5L125.372 137.529L125.604 137.732L125.43 138.05L123.346 141.408L123.085 141.813L122.709 141.524C122.632 141.446 122.351 141.268 121.869 140.988C121.387 140.709 120.615 140.395 119.553 140.048C118.492 139.7 117.449 139.526 116.426 139.526C115.442 139.526 114.772 139.714 114.414 140.091C114.056 140.467 113.879 140.876 113.879 141.321L113.88 141.318Z" fill="#FEFEFE"/>
<path d="M92.8017 139.871H90.8045V143.634H92.8017C94.3456 143.634 95.4412 143.494 96.0873 143.215C96.7333 142.935 97.0569 142.448 97.0569 141.753C97.0569 141.058 96.7333 140.57 96.0873 140.291C95.44 140.011 94.3456 139.871 92.8017 139.871ZM85.2761 135.037H85.7106H90.3423H92.803C95.9298 135.037 98.2646 135.65 99.8085 136.875C101.352 138.101 102.124 139.727 102.124 141.753C102.124 143.799 101.352 145.429 99.8085 146.645C98.2646 147.862 95.9298 148.469 92.803 148.469H90.8057V155.011V155.445H90.3423H85.7106H85.2761V155.011V135.471V135.037Z" fill="#FEFEFE"/>
<path d="M55.0781 135.037H55.5126H60.6657H60.8974L61.0409 135.24L67.4684 145.372L73.9526 135.24L74.0974 135.037H74.3291H79.4809H79.9154V135.471V155.011V155.445H79.4809H74.9084H74.4727V155.011V143.431L67.8437 153.651L67.4684 154.258L67.0629 153.651L60.5208 143.431V155.011V155.445H60.0864H55.5126H55.0781V155.011V135.471V135.037Z" fill="#FEFEFE"/>
<path d="M35.1874 135.037H35.506H41.0054H41.324L41.4399 135.327L49.4868 154.866L49.7185 155.445H49.0826H44.1033H43.7847L43.6688 155.155L38.2551 141.724L32.8426 155.155L32.7267 155.445H32.4081H27.4289H26.7929L27.0234 154.866L35.0716 135.327L35.1874 135.037Z" fill="#FEFEFE"/>
<path d="M3.97685 152.854C1.83478 150.875 0.763123 148.343 0.763123 145.255C0.763123 142.167 1.83478 139.635 3.97685 137.656C6.11893 135.678 8.83022 134.689 12.1107 134.689C14.0211 134.689 15.7677 135.056 17.3507 135.79C18.9336 136.523 20.2068 137.546 21.1714 138.858L21.4321 139.205L21.0845 139.466L17.5244 142.245L17.1769 142.506L16.8872 142.158C15.7488 140.749 14.1571 140.045 12.1107 140.045C10.4132 140.045 8.99896 140.533 7.87062 141.507C6.74229 142.482 6.17686 143.731 6.17686 145.256C6.17686 146.781 6.74103 148.03 7.87062 149.005C8.99896 149.98 10.4132 150.467 12.1107 150.467C14.0979 150.467 15.6909 149.743 16.8872 148.296L17.1769 147.949L17.5244 148.209L21.0845 151.018L21.4321 151.278L21.1714 151.626C20.2068 152.957 18.9323 153.99 17.3507 154.724C15.7677 155.457 14.0211 155.824 12.1107 155.824C8.83022 155.824 6.11893 154.836 3.97685 152.857V152.854Z" fill="#FEFEFE"/>
<path fill-rule="evenodd" clip-rule="evenodd" d="M35.7113 155.445L38.2551 149.131L40.8002 155.445H35.7113Z" fill="#809E26"/>
<path fill-rule="evenodd" clip-rule="evenodd" d="M160.792 155.445L163.335 149.131L165.88 155.445H160.792Z" fill="#809E26"/>
<path d="M102.061 23.6189L73.3859 102.167C82.8923 82.922 92.3988 63.6787 101.907 44.4353C107.136 55.0222 112.365 65.6103 117.597 76.1985H91.4556L139.259 93.6123L102.063 23.6201L102.061 23.6189Z" fill="#FEFEFE"/>
<path fill-rule="evenodd" clip-rule="evenodd" d="M102.061 23.6189L139.257 93.6111L91.4543 76.1973C88.2079 82.8779 84.9601 89.5574 81.7137 96.2367C107.057 100.356 132.401 104.474 157.744 108.592C139.132 72.466 120.518 36.3405 101.905 0.213623L50.0661 110.008L203.808 123.813C160.333 116.598 116.86 109.38 73.3846 102.166L102.06 23.6177L102.061 23.6189Z" fill="#809E26"/>
<path d="M101.907 0.214844C81.6406 39.5681 61.3759 78.9213 41.1112 118.273C95.3443 120.122 149.576 121.969 203.809 123.814L50.0674 110.01L101.907 0.214844Z" fill="#FEFEFE"/>
<path d="M8.64005 189.393V180.996H4.08516L4.01085 183.178C3.98063 183.909 3.93403 184.612 3.86981 185.284C3.80559 185.957 3.71367 186.562 3.59529 187.101C3.47692 187.64 3.31068 188.083 3.09786 188.429C2.88504 188.775 2.61555 188.988 2.28939 189.067L0.687549 188.8C1.0729 188.83 1.39151 188.7 1.64463 188.407C1.89649 188.115 2.0942 187.705 2.23776 187.176C2.38132 186.647 2.4871 186.029 2.55637 185.322C2.62563 184.614 2.67473 183.856 2.70496 183.045L2.80823 179.707H10.1071V189.395H8.63879L8.64005 189.393ZM0.317322 192.36L0.332433 188.8H11.6372V192.36H10.257V190.091H1.71262L1.69751 192.36H0.317322ZM18.3417 190.21C17.5509 190.21 16.8167 190.076 16.1392 189.809C15.4617 189.542 14.8761 189.169 14.3812 188.69C13.8863 188.21 13.501 187.648 13.2239 187.006C12.9469 186.362 12.8083 185.661 12.8083 184.899C12.8083 184.137 12.9469 183.436 13.2239 182.792C13.501 182.149 13.8863 181.588 14.3812 181.108C14.8761 180.629 15.4592 180.256 16.1316 179.988C16.8041 179.721 17.5408 179.587 18.3417 179.587C19.1326 179.587 19.863 179.718 20.5304 179.98C21.1978 180.242 21.7809 180.614 22.2808 181.093C22.7795 181.573 23.1661 182.135 23.4381 182.777C23.7101 183.42 23.8461 184.127 23.8461 184.899C23.8461 185.671 23.7101 186.377 23.4381 187.021C23.1661 187.664 22.7808 188.225 22.2808 188.705C21.7809 189.184 21.1978 189.555 20.5304 189.818C19.863 190.08 19.1338 190.211 18.3417 190.211V190.21ZM18.3417 188.89C18.916 188.89 19.4474 188.79 19.9373 188.593C20.4271 188.395 20.8515 188.115 21.2129 187.754C21.5743 187.393 21.8564 186.971 22.0592 186.486C22.2619 186.001 22.3627 185.472 22.3627 184.898C22.3627 184.323 22.2619 183.795 22.0592 183.31C21.8564 182.825 21.5743 182.402 21.2129 182.042C20.8515 181.68 20.4271 181.402 19.9373 181.204C19.4474 181.006 18.916 180.907 18.3417 180.907C17.7587 180.907 17.2222 181.005 16.7323 181.204C16.2425 181.402 15.8156 181.681 15.4491 182.042C15.0827 182.403 14.7993 182.825 14.5966 183.31C14.3938 183.795 14.2918 184.323 14.2918 184.898C14.2918 185.472 14.3926 186.001 14.5966 186.486C14.7993 186.971 15.0839 187.394 15.4491 187.754C15.8156 188.115 16.2425 188.394 16.7323 188.593C17.2222 188.79 17.7587 188.89 18.3417 188.89ZM26.2489 190.091V179.707H27.4654L32.1235 187.555H31.4712L36.0702 179.707H37.2867L37.3018 190.091H35.8775L35.8624 181.947H36.2037L32.1097 188.83H31.4271L27.3029 181.947H27.6732V190.091H26.2489ZM52.5079 190.091V179.707H56.9734C58.1004 179.707 58.9857 179.935 59.6292 180.389C60.2727 180.844 60.5939 181.506 60.5939 182.377C60.5939 183.228 60.2878 183.878 59.6746 184.327C59.0613 184.777 58.2553 185.002 57.2567 185.002L57.5237 184.556C58.681 184.556 59.5688 184.787 60.1871 185.247C60.8054 185.706 61.114 186.376 61.114 187.256C61.114 188.147 60.7903 188.841 60.1418 189.341C59.4945 189.839 58.5324 190.09 57.2567 190.09H52.5091L52.5079 190.091ZM53.9762 188.919H57.2252C58.0161 188.919 58.6117 188.773 59.0134 188.48C59.4139 188.188 59.6141 187.741 59.6141 187.138C59.6141 186.535 59.4139 186.094 59.0134 185.818C58.613 185.541 58.0173 185.403 57.2252 185.403H53.9762V188.919ZM53.9762 184.276H56.8688C57.5904 184.276 58.142 184.132 58.5236 183.845C58.9039 183.558 59.094 183.137 59.094 182.584C59.094 182.02 58.9039 181.596 58.5236 181.309C58.142 181.023 57.5917 180.878 56.8688 180.878H53.9762V184.276ZM70.4869 189.393V180.996H65.932L65.8577 183.178C65.8275 183.909 65.7809 184.612 65.7167 185.284C65.6525 185.957 65.5606 186.562 65.4422 187.101C65.3238 187.64 65.1576 188.083 64.9447 188.429C64.7319 188.775 64.4624 188.988 64.1363 189.067L62.5344 188.8C62.9198 188.83 63.2384 188.7 63.4915 188.407C63.7434 188.115 63.9411 187.705 64.0846 187.176C64.2282 186.647 64.334 186.029 64.4033 185.322C64.4725 184.614 64.5216 183.856 64.5518 183.045L64.6551 179.707H71.954V189.395H70.4857L70.4869 189.393ZM62.1642 192.36L62.1793 188.8H73.4841V192.36H72.1039V190.091H63.5595L63.5444 192.36H62.1642ZM74.0772 190.091L78.7795 179.707H80.2478L84.9651 190.091H83.4074L79.2089 180.537H79.802L75.6035 190.091H74.076H74.0772ZM76.0795 187.494L76.48 186.308H82.3244L82.7551 187.494H76.0795ZM86.271 190.21C86.1225 190.21 85.9739 190.199 85.8265 190.181C85.6779 190.16 85.5142 190.131 85.3366 190.091L85.4412 188.771C85.5998 188.81 85.7572 188.83 85.9159 188.83C86.3504 188.83 86.6967 188.658 86.9548 188.312C87.2117 187.965 87.4019 187.442 87.5253 186.739C87.6487 186.036 87.7306 185.151 87.7696 184.083L87.9333 179.707H95.2474V190.091H93.7929V180.611L94.1493 180.996H88.8828L89.209 180.596L89.0906 184.038C89.0604 185.066 88.9911 185.966 88.8828 186.738C88.7745 187.51 88.6108 188.152 88.393 188.667C88.1751 189.181 87.8955 189.567 87.5543 189.824C87.213 190.081 86.7861 190.21 86.271 190.21ZM98.48 190.091V179.707H99.9483V187.719L106.09 179.707H107.455V190.091H106.002V182.094L99.8451 190.091H98.48ZM127.334 190.21C126.544 190.21 125.809 190.076 125.132 189.809C124.454 189.542 123.869 189.169 123.374 188.69C122.879 188.21 122.494 187.648 122.217 187.006C121.94 186.362 121.801 185.661 121.801 184.899C121.801 184.137 121.94 183.436 122.217 182.792C122.494 182.149 122.879 181.588 123.374 181.108C123.869 180.629 124.452 180.256 125.124 179.988C125.797 179.721 126.533 179.587 127.334 179.587C128.125 179.587 128.856 179.718 129.523 179.98C130.19 180.242 130.774 180.614 131.273 181.093C131.772 181.573 132.159 182.135 132.431 182.777C132.703 183.42 132.839 184.127 132.839 184.899C132.839 185.671 132.703 186.377 132.431 187.021C132.159 187.664 131.773 188.225 131.273 188.705C130.774 189.184 130.19 189.555 129.523 189.818C128.856 190.08 128.126 190.211 127.334 190.211V190.21ZM127.334 188.89C127.909 188.89 128.44 188.79 128.93 188.593C129.42 188.395 129.844 188.115 130.206 187.754C130.567 187.393 130.849 186.971 131.052 186.486C131.255 186.001 131.355 185.472 131.355 184.898C131.355 184.323 131.255 183.795 131.052 183.31C130.849 182.825 130.567 182.402 130.206 182.042C129.844 181.68 129.42 181.402 128.93 181.204C128.44 181.006 127.909 180.907 127.334 180.907C126.751 180.907 126.215 181.005 125.725 181.204C125.235 181.402 124.808 181.681 124.442 182.042C124.075 182.403 123.792 182.825 123.589 183.31C123.386 183.795 123.284 184.323 123.284 184.898C123.284 185.472 123.385 186.001 123.589 186.486C123.792 186.971 124.077 187.394 124.442 187.754C124.808 188.115 125.235 188.394 125.725 188.593C126.215 188.79 126.751 188.89 127.334 188.89ZM137.215 190.091V180.611L137.586 180.996H133.67V179.706H142.229V180.996H138.313L138.669 180.611V190.091H137.215ZM162.91 189.393V180.996H158.355L158.28 183.178C158.25 183.909 158.204 184.612 158.139 185.284C158.075 185.957 157.983 186.562 157.865 187.101C157.747 187.64 157.58 188.083 157.367 188.429C157.155 188.775 156.885 188.988 156.559 189.067L154.957 188.8C155.343 188.83 155.661 188.7 155.914 188.407C156.166 188.115 156.364 187.705 156.507 187.176C156.651 186.647 156.757 186.029 156.826 185.322C156.895 184.614 156.944 183.856 156.975 183.045L157.078 179.707H164.377V189.395H162.908L162.91 189.393ZM154.587 192.36L154.602 188.8H165.907V192.36H164.527V190.091H155.982L155.967 192.36H154.587ZM172.611 190.21C171.821 190.21 171.086 190.076 170.409 189.809C169.731 189.542 169.146 189.169 168.651 188.69C168.156 188.21 167.771 187.648 167.494 187.006C167.217 186.362 167.078 185.661 167.078 184.899C167.078 184.137 167.217 183.436 167.494 182.792C167.771 182.149 168.156 181.588 168.651 181.108C169.146 180.629 169.729 180.256 170.401 179.988C171.074 179.721 171.81 179.587 172.611 179.587C173.402 179.587 174.133 179.718 174.8 179.98C175.467 180.242 176.051 180.614 176.55 181.093C177.049 181.573 177.436 182.135 177.708 182.777C177.98 183.42 178.116 184.127 178.116 184.899C178.116 185.671 177.98 186.377 177.708 187.021C177.436 187.664 177.05 188.225 176.55 188.705C176.051 189.184 175.467 189.555 174.8 189.818C174.133 190.08 173.403 190.211 172.611 190.211V190.21ZM172.611 188.89C173.186 188.89 173.717 188.79 174.207 188.593C174.697 188.395 175.121 188.115 175.483 187.754C175.844 187.393 176.126 186.971 176.329 186.486C176.532 186.001 176.632 185.472 176.632 184.898C176.632 184.323 176.532 183.795 176.329 183.31C176.126 182.825 175.844 182.402 175.483 182.042C175.121 181.68 174.697 181.402 174.207 181.204C173.717 181.006 173.186 180.907 172.611 180.907C172.028 180.907 171.492 181.005 171.002 181.204C170.512 181.402 170.085 181.681 169.719 182.042C169.352 182.403 169.069 182.825 168.866 183.31C168.663 183.795 168.561 184.323 168.561 184.898C168.561 185.472 168.662 186.001 168.866 186.486C169.069 186.971 169.354 187.394 169.719 187.754C170.085 188.115 170.512 188.394 171.002 188.593C171.492 188.79 172.028 188.89 172.611 188.89ZM180.519 190.091V179.707H181.735L186.393 187.555H185.741L190.34 179.707H191.556L191.571 190.091H190.147L190.132 181.947H190.473L186.379 188.83H185.697L181.573 181.947H181.943V190.091H180.519ZM193.366 190.091L198.068 179.707H199.537L204.254 190.091H202.696L198.498 180.537H199.091L194.892 190.091H193.365H193.366ZM195.368 187.494L195.769 186.308H201.613L202.044 187.494H195.368Z" fill="#FEFEFE"/>
</svg>
