<svg width="204" height="195" viewBox="0 0 204 195" fill="none" xmlns="http://www.w3.org/2000/svg">
<path d="M160.267 135.609H160.585H166.085H166.404L166.52 135.898L174.567 155.438L174.799 156.017H174.162H169.183H168.864L168.748 155.728L163.335 142.296L157.922 155.728L157.806 156.017H157.488H152.509H151.872L152.103 155.438L160.151 135.898L160.267 135.609Z" fill="#FEFEFE"/>
<path d="M187.7 140.443H185.731V144.207H187.7C189.244 144.207 190.334 144.067 190.971 143.787C191.608 143.507 191.926 143.02 191.926 142.325C191.926 141.63 191.608 141.143 190.971 140.863C190.334 140.583 189.244 140.443 187.7 140.443ZM180.203 135.609H180.637H185.239H187.7C190.845 135.609 193.19 136.212 194.734 137.418C196.278 138.625 197.05 140.231 197.05 142.238C197.05 144.824 195.931 146.677 193.692 147.796L197.774 155.41L198.092 156.017H197.397H192.65H192.332L192.216 155.757L188.655 149.041H187.7H185.731V155.583V156.017H185.239H180.637H180.203V155.583V136.043V135.609L180.203 135.609Z" fill="#FEFEFE"/>
<path d="M131.165 135.609H131.599H148.447H148.881V136.043V140.009V140.443H148.447H142.918V155.583V156.017H142.455H137.563H137.099V155.583V140.443H131.599H131.165V140.009V136.043V135.609Z" fill="#FEFEFE"/>
<path d="M113.88 141.891C113.88 142.181 114.29 142.441 115.11 142.673C115.93 142.904 116.924 143.16 118.091 143.439C119.259 143.719 120.426 144.081 121.594 144.525C122.761 144.969 123.755 145.649 124.576 146.566C125.396 147.482 125.806 148.588 125.806 149.881C125.806 152.042 125 153.667 123.389 154.758C121.777 155.848 119.534 156.394 116.659 156.394C113.166 156.394 110.203 155.583 107.771 153.962L107.482 153.73L107.685 153.383L109.856 149.822L110.087 149.446L110.464 149.678C110.715 149.832 111.048 150.015 111.462 150.228C111.877 150.44 112.664 150.725 113.822 151.082C114.979 151.439 116.051 151.617 117.035 151.617C117.71 151.617 118.275 151.554 118.728 151.429C119.182 151.303 119.5 151.135 119.683 150.923C119.867 150.71 119.987 150.513 120.045 150.329C120.103 150.146 120.132 149.938 120.132 149.707C120.132 149.34 119.91 149.017 119.466 148.737C119.022 148.457 118.448 148.221 117.744 148.028C117.04 147.835 116.263 147.642 115.414 147.449C114.564 147.256 113.716 147.009 112.866 146.711C112.017 146.412 111.24 146.064 110.536 145.669C109.832 145.273 109.258 144.737 108.813 144.062C108.37 143.386 108.148 142.605 108.148 141.717C108.148 139.633 108.997 138.031 110.695 136.912C112.393 135.793 114.449 135.233 116.861 135.233C118.057 135.233 119.191 135.359 120.262 135.609C121.334 135.86 122.226 136.178 122.94 136.564C123.654 136.95 124.175 137.25 124.503 137.462C124.831 137.674 125.111 137.877 125.343 138.07L125.372 138.099L125.603 138.301L125.43 138.62L123.345 141.978L123.085 142.383L122.709 142.094C122.631 142.016 122.351 141.838 121.869 141.558C121.386 141.278 120.615 140.965 119.553 140.617C118.492 140.27 117.45 140.096 116.427 140.096C115.442 140.096 114.772 140.284 114.415 140.661C114.058 141.037 113.88 141.447 113.88 141.891H113.88Z" fill="#FEFEFE"/>
<path d="M92.8011 140.443H90.804V144.207H92.8011C94.345 144.207 95.4403 144.067 96.087 143.787C96.7333 143.507 97.0564 143.02 97.0564 142.325C97.0564 141.63 96.7333 141.143 96.087 140.863C95.4403 140.583 94.345 140.443 92.8011 140.443ZM85.2749 135.609H85.7092H90.3406H92.8011C95.9275 135.609 98.2628 136.222 99.8064 137.447C101.35 138.673 102.123 140.299 102.123 142.325C102.123 144.371 101.35 146.001 99.8064 147.217C98.2629 148.433 95.9275 149.041 92.8011 149.041H90.804V155.583V156.017H90.3406H85.7092H85.2749V155.583V136.043V135.609V135.609Z" fill="#FEFEFE"/>
<path d="M55.0784 135.609H55.5126H60.6653H60.8969L61.0413 135.812L67.468 145.944L73.9522 135.812L74.097 135.609H74.3286H79.4813H79.9155V136.043V155.583V156.017H79.4813H74.9076H74.473V155.583V144.004L67.8441 154.223L67.468 154.83L67.0625 154.223L60.5205 144.004V155.583V156.017H60.0862H55.5126H55.0784V155.583V136.043V135.609Z" fill="#FEFEFE"/>
<path d="M35.1872 135.609H35.5054H41.0058H41.324L41.44 135.898L49.4874 155.438L49.7191 156.017H49.0823H44.1031H43.7845L43.6688 155.728L38.2554 142.296L32.8424 155.728L32.7267 156.017H32.4081H27.4293H26.7925L27.0238 155.438L35.0715 135.898L35.1872 135.609Z" fill="#FEFEFE"/>
<path d="M3.97725 153.426C1.83539 151.448 0.763916 148.915 0.763916 145.827C0.763916 142.74 1.83539 140.207 3.97725 138.229C6.11949 136.251 8.83093 135.261 12.1116 135.261C14.0221 135.261 15.7686 135.628 17.3511 136.362C18.9336 137.095 20.2073 138.118 21.1722 139.43L21.4326 139.778L21.0853 140.038L17.525 142.817L17.1776 143.077L16.8878 142.73C15.7494 141.321 14.1574 140.617 12.1116 140.617C10.4134 140.617 8.99989 141.104 7.87095 142.079C6.742 143.053 6.17734 144.303 6.17734 145.827C6.17734 147.352 6.742 148.602 7.87095 149.576C8.99989 150.551 10.4134 151.038 12.1116 151.038C14.0992 151.038 15.6915 150.315 16.8878 148.867L17.1776 148.52L17.525 148.78L21.0853 151.588L21.4326 151.849L21.1722 152.196C20.2073 153.528 18.9336 154.56 17.3511 155.293C15.7686 156.027 14.0221 156.394 12.1116 156.394C8.83093 156.394 6.11949 155.404 3.97725 153.426Z" fill="#FEFEFE"/>
<path fill-rule="evenodd" clip-rule="evenodd" d="M35.7114 156.017L38.2554 149.703L40.7998 156.017H35.7114Z" fill="#809E26"/>
<path fill-rule="evenodd" clip-rule="evenodd" d="M160.791 156.017L163.335 149.703L165.88 156.017H160.791Z" fill="#809E26"/>
<path d="M102.062 24.1912L73.3857 102.739C82.8924 83.4947 92.3987 64.2506 101.906 45.0067C107.135 55.5943 112.365 66.182 117.596 76.77H91.4549L139.258 94.1837L102.062 24.1912Z" fill="#FEFEFE"/>
<path fill-rule="evenodd" clip-rule="evenodd" d="M102.062 24.191L139.258 94.1835L91.4547 76.7698C88.2078 83.4501 84.9608 90.13 81.7142 96.8092C107.057 100.929 132.401 105.047 157.744 109.164C139.132 73.0388 120.518 36.9129 101.906 0.786621L50.0667 110.582L203.809 124.387C160.334 117.172 116.86 109.954 73.3856 102.738L102.062 24.191H102.062Z" fill="#809E26"/>
<path d="M101.906 0.786621C81.64 40.1398 61.3753 79.4931 41.1106 118.845C95.3434 120.693 149.575 122.541 203.809 124.387L50.0666 110.582L101.906 0.786621Z" fill="#FEFEFE"/>
<path d="M1.83994 193.364V189.425H2.5661C2.81549 189.198 3.05021 188.877 3.27026 188.463C3.49398 188.045 3.68286 187.487 3.83689 186.79C3.99459 186.09 4.09912 185.201 4.15046 184.122L4.39252 179.369H11.082V189.425H12.3803V193.342H11.082V190.636H3.13823V193.364H1.83994ZM4.19447 189.425H9.78374V180.579H5.6248L5.44876 184.122C5.40475 184.944 5.32773 185.688 5.2177 186.356C5.10768 187.02 4.96648 187.608 4.79411 188.122C4.62174 188.631 4.42186 189.066 4.19447 189.425ZM23.9481 185.002C23.9481 186.191 23.7335 187.218 23.3044 188.083C22.8753 188.949 22.2867 189.616 21.5385 190.086C20.7904 190.555 19.9358 190.79 18.975 190.79C18.0141 190.79 17.1595 190.555 16.4114 190.086C15.6632 189.616 15.0746 188.949 14.6455 188.083C14.2164 187.218 14.0018 186.191 14.0018 185.002C14.0018 183.814 14.2164 182.787 14.6455 181.922C15.0746 181.056 15.6632 180.389 16.4114 179.919C17.1595 179.45 18.0141 179.215 18.975 179.215C19.9358 179.215 20.7904 179.45 21.5385 179.919C22.2867 180.389 22.8753 181.056 23.3044 181.922C23.7335 182.787 23.9481 183.814 23.9481 185.002ZM22.6278 185.002C22.6278 184.027 22.4646 183.204 22.1382 182.532C21.8154 181.861 21.3772 181.353 20.8234 181.009C20.2732 180.664 19.6571 180.491 18.975 180.491C18.2928 180.491 17.6748 180.664 17.121 181.009C16.5709 181.353 16.1326 181.861 15.8062 182.532C15.4835 183.204 15.3221 184.027 15.3221 185.002C15.3221 185.978 15.4835 186.801 15.8062 187.473C16.1326 188.144 16.5709 188.652 17.121 188.996C17.6748 189.341 18.2928 189.513 18.975 189.513C19.6571 189.513 20.2732 189.341 20.8234 188.996C21.3772 188.652 21.8154 188.144 22.1382 187.473C22.4646 186.801 22.6278 185.978 22.6278 185.002ZM26.2421 179.369H27.8705L31.6993 188.721H31.8314L35.6602 179.369H37.2886V190.636H36.0123V182.076H35.9023L32.3815 190.636H31.1492L27.6284 182.076H27.5184V190.636H26.2421V179.369ZM44.3811 190.636V179.369H48.32C49.1048 179.369 49.7522 179.505 50.2619 179.776C50.7717 180.044 51.1513 180.405 51.4007 180.86C51.6501 181.311 51.7748 181.812 51.7748 182.362C51.7748 182.846 51.6886 183.246 51.5162 183.561C51.3475 183.877 51.1238 184.126 50.8451 184.309C50.57 184.493 50.2711 184.628 49.9484 184.716V184.826C50.2931 184.848 50.6397 184.969 50.9881 185.19C51.3365 185.41 51.6281 185.725 51.8628 186.136C52.0975 186.546 52.2149 187.049 52.2149 187.643C52.2149 188.208 52.0865 188.716 51.8298 189.167C51.5731 189.618 51.1678 189.976 50.614 190.24C50.0602 190.504 49.3396 190.636 48.452 190.636H44.3811ZM45.7454 189.425H48.452C49.3432 189.425 49.9759 189.253 50.35 188.908C50.7277 188.56 50.9166 188.138 50.9166 187.643C50.9166 187.262 50.8194 186.91 50.625 186.587C50.4306 186.26 50.1537 186 49.7943 185.806C49.4349 185.608 49.0095 185.509 48.518 185.509H45.7454V189.425ZM45.7454 184.32H48.276C48.6867 184.32 49.0572 184.24 49.3872 184.078C49.721 183.917 49.985 183.689 50.1794 183.396C50.3775 183.103 50.4765 182.758 50.4765 182.362C50.4765 181.867 50.3041 181.447 49.9594 181.102C49.6146 180.754 49.0682 180.579 48.32 180.579H45.7454V184.32ZM53.4884 193.364V189.425H54.2146C54.464 189.198 54.6987 188.877 54.9187 188.463C55.1425 188.045 55.3313 187.487 55.4854 186.79C55.6431 186.09 55.7476 185.201 55.7989 184.122L56.041 179.369H62.7305V189.425H64.0288V193.342H62.7305V190.636H54.7867V193.364H53.4884ZM55.8429 189.425H61.4322V180.579H57.2733L57.0972 184.122C57.0532 184.944 56.9762 185.688 56.8662 186.356C56.7562 187.02 56.615 187.608 56.4426 188.122C56.2702 188.631 56.0703 189.066 55.8429 189.425ZM66.5525 190.636H65.1222L69.2591 179.369H70.6674L74.8044 190.636H73.3741L70.0073 181.152H69.9193L66.5525 190.636ZM67.0806 186.235H72.8459V187.445H67.0806V186.235ZM75.5911 190.636V189.381H75.9211C76.3906 189.381 76.7555 189.231 77.0159 188.93C77.2763 188.63 77.4633 188.144 77.577 187.473C77.6944 186.801 77.7732 185.912 77.8136 184.804L78.0116 179.369H84.8772V190.636H83.5129V180.579H79.3099L79.1339 185.068C79.0899 186.249 78.9817 187.254 78.8093 188.083C78.6369 188.912 78.3343 189.545 77.9016 189.981C77.4688 190.418 76.838 190.636 76.0092 190.636H75.5911ZM87.603 179.369H88.9453V188.237H89.0554L95.2168 179.369H96.5371V190.636H95.1728V181.79H95.0627L88.9233 190.636H87.603V179.369ZM113.13 185.002C113.13 186.191 112.916 187.218 112.487 188.083C112.057 188.949 111.469 189.616 110.721 190.086C109.972 190.555 109.118 190.79 108.157 190.79C107.196 190.79 106.342 190.555 105.593 190.086C104.845 189.616 104.257 188.949 103.828 188.083C103.398 187.218 103.184 186.191 103.184 185.002C103.184 183.814 103.398 182.787 103.828 181.922C104.257 181.056 104.845 180.389 105.593 179.919C106.342 179.45 107.196 179.215 108.157 179.215C109.118 179.215 109.972 179.45 110.721 179.919C111.469 180.389 112.057 181.056 112.487 181.922C112.916 182.787 113.13 183.814 113.13 185.002ZM111.81 185.002C111.81 184.027 111.647 183.204 111.32 182.532C110.998 181.861 110.559 181.353 110.005 181.009C109.455 180.664 108.839 180.491 108.157 180.491C107.475 180.491 106.857 180.664 106.303 181.009C105.753 181.353 105.315 181.861 104.988 182.532C104.666 183.204 104.504 184.027 104.504 185.002C104.504 185.978 104.666 186.801 104.988 187.473C105.315 188.144 105.753 188.652 106.303 188.996C106.857 189.341 107.475 189.513 108.157 189.513C108.839 189.513 109.455 189.341 110.005 188.996C110.559 188.652 110.998 188.144 111.32 187.473C111.647 186.801 111.81 185.978 111.81 185.002ZM114.339 180.579V179.369H122.789V180.579H119.246V190.636H117.882V180.579H114.339ZM138.758 185.002C138.758 186.191 138.543 187.218 138.114 188.083C137.685 188.949 137.096 189.616 136.348 190.086C135.6 190.555 134.746 190.79 133.785 190.79C132.824 190.79 131.969 190.555 131.221 190.086C130.473 189.616 129.884 188.949 129.455 188.083C129.026 187.218 128.812 186.191 128.812 185.002C128.812 183.814 129.026 182.787 129.455 181.922C129.884 181.056 130.473 180.389 131.221 179.919C131.969 179.45 132.824 179.215 133.785 179.215C134.746 179.215 135.6 179.45 136.348 179.919C137.096 180.389 137.685 181.056 138.114 181.922C138.543 182.787 138.758 183.814 138.758 185.002ZM137.437 185.002C137.437 184.027 137.274 183.204 136.948 182.532C136.625 181.861 136.187 181.353 135.633 181.009C135.083 180.664 134.467 180.491 133.785 180.491C133.102 180.491 132.485 180.664 131.931 181.009C131.381 181.353 130.942 181.861 130.616 182.532C130.293 183.204 130.132 184.027 130.132 185.002C130.132 185.978 130.293 186.801 130.616 187.473C130.942 188.144 131.381 188.652 131.931 188.996C132.485 189.341 133.102 189.513 133.785 189.513C134.467 189.513 135.083 189.341 135.633 188.996C136.187 188.652 136.625 188.144 136.948 187.473C137.274 186.801 137.437 185.978 137.437 185.002ZM141.052 179.369H142.68L146.509 188.721H146.641L150.47 179.369H152.098V190.636H150.822V182.076H150.712L147.191 190.636H145.959L142.438 182.076H142.328V190.636H141.052V179.369ZM155.296 190.636H153.866L158.003 179.369H159.411L163.548 190.636H162.117L158.751 181.152H158.663L155.296 190.636ZM155.824 186.235H161.589V187.445H155.824V186.235Z" fill="#FEFEFE"/>
</svg>
