<svg width="33" height="33" viewBox="0 0 33 33" fill="none" xmlns="http://www.w3.org/2000/svg">
<path d="M29.0133 24.0618C28.2491 23.4452 27.4092 22.8599 26.5733 22.2787L26.0436 21.9058C25.1834 21.3033 24.393 20.9758 23.7026 21.0375C23.0527 21.0981 22.423 21.5287 21.8205 22.4395C21.2909 23.238 20.642 23.6827 19.9233 23.8535C19.146 24.0375 18.3242 23.8879 17.5055 23.517C15.7083 22.7023 14.1113 21.6632 12.7589 20.3694C11.3984 19.0675 10.2865 17.5099 9.46674 15.6662C9.0604 14.7524 8.86228 13.8629 9.00784 13.0129C9.1635 12.1214 9.67598 11.3158 10.6868 10.6294C11.0476 10.3838 11.4125 10.118 11.6561 9.80161C11.8552 9.54993 11.9796 9.24164 11.9583 8.84238C11.923 8.17829 10.9576 6.54689 9.82051 4.99533C8.70461 3.47309 7.47449 2.09842 6.85084 1.86898C6.61634 1.78205 6.38587 1.74162 6.16249 1.74263C5.93203 1.74364 5.68844 1.78912 5.43776 1.87403L4.95258 2.05496C3.57791 2.61493 2.60555 3.46703 2.10319 4.51218C1.60386 5.55126 1.55533 6.81474 2.02131 8.20154L2.18808 8.64629C4.30769 13.8498 7.22178 18.271 10.8778 21.9432C14.6116 25.6962 19.1349 28.6831 24.3869 30.9452C24.7569 31.1049 25.1875 31.2019 25.5099 31.2737L25.7747 31.3364C26.7289 31.3141 27.7822 30.8431 28.705 30.1416C29.7289 29.3623 30.5699 28.3151 30.9338 27.2882C31.421 25.9105 30.4658 25.1797 29.5157 24.4539L29.0103 24.0618H29.0133ZM27.5234 20.9142C28.3735 21.5025 29.2276 22.0968 30.0564 22.7659L30.5285 23.1329C31.9587 24.2255 33.3961 25.3252 32.5056 27.8411C32.0335 29.1743 30.9833 30.5005 29.7178 31.4637C28.4917 32.3977 27.0362 33.0112 25.6676 32.9981L25.5473 32.9971L25.1481 32.898C24.7599 32.8111 24.2414 32.6939 23.736 32.4776C18.2919 30.1346 13.5958 27.0294 9.70327 23.1167C5.88857 19.2838 2.85115 14.6817 0.648653 9.27297L0.449532 8.73018C-0.160982 6.91683 -0.0780902 5.22781 0.609243 3.79755C1.29456 2.37235 2.56512 1.23319 4.33096 0.513513L4.91317 0.299227C5.32355 0.162771 5.73998 0.086963 6.15945 0.0849414C6.58499 0.0829199 7.01054 0.154685 7.42698 0.308324C8.36499 0.653001 9.88622 2.26925 11.1649 4.01386C12.4597 5.78071 13.5655 7.75882 13.6211 8.75141C13.6686 9.61057 13.3977 10.2757 12.9722 10.8215C12.5972 11.3067 12.1039 11.6726 11.6197 12.0011C11.0254 12.4044 10.7302 12.837 10.6514 13.2919C10.5665 13.7871 10.707 14.3623 10.9849 14.9879C11.7127 16.6254 12.7013 18.0082 13.9071 19.1635C15.1211 20.3249 16.5625 21.2609 18.1908 21.9998C18.6871 22.2242 19.1511 22.3232 19.5412 22.2312C19.8607 22.1554 20.1659 21.9341 20.4358 21.5247C21.3455 20.144 22.3997 19.4829 23.5611 19.3808C24.6811 19.2838 25.8313 19.7245 26.9998 20.5452L27.5244 20.9142H27.5234Z" fill="#FEFEFE"/>
</svg>
